<svg width="133" height="133" viewBox="0 0 133 133" fill="none" xmlns="http://www.w3.org/2000/svg">
<circle cx="66.5" cy="66.5" r="66.5" fill="black"/>
<path d="M114 67C114 92.9574 92.9574 114 67 114C41.0426 114 20 92.9574 20 67C20 41.0426 41.0426 20 67 20C92.9574 20 114 41.0426 114 67ZM28.1481 67C28.1481 88.4573 45.5427 105.852 67 105.852C88.4573 105.852 105.852 88.4573 105.852 67C105.852 45.5427 88.4573 28.1481 67 28.1481C45.5427 28.1481 28.1481 45.5427 28.1481 67Z" fill="white"/>
<path d="M86.7896 67C86.7896 77.9294 77.9296 86.7895 67.0002 86.7895C56.0707 86.7895 47.2107 77.9294 47.2107 67C47.2107 56.0706 56.0707 47.2105 67.0002 47.2105C77.9296 47.2105 86.7896 56.0706 86.7896 67ZM55.7714 67C55.7714 73.2015 60.7987 78.2288 67.0002 78.2288C73.2017 78.2288 78.229 73.2015 78.229 67C78.229 60.7985 73.2017 55.7712 67.0002 55.7712C60.7987 55.7712 55.7714 60.7985 55.7714 67Z" fill="white"/>
</svg>
